<?xml version="1.0" standalone="no"?>
<!DOCTYPE svg PUBLIC "-//W3C//DTD SVG 20010904//EN"
 "http://www.w3.org/TR/2001/REC-SVG-20010904/DTD/svg10.dtd">
<svg version="1.0" xmlns="http://www.w3.org/2000/svg"
 width="1685.000000pt" height="1685.000000pt" viewBox="0 0 1685.000000 1685.000000"
 preserveAspectRatio="xMidYMid meet">
<metadata>
Created by potrace 1.14, written by Peter Selinger 2001-2017
</metadata>
<g transform="translate(0.000000,1685.000000) scale(0.100000,-0.100000)"
fill="#000000" stroke="none">
<path d="M0 13318 l0 -3532 52 50 c29 27 67 62 84 77 l30 27 243 -29 c133 -16
243 -30 245 -32 2 -2 -12 -67 -30 -144 -94 -392 -177 -851 -219 -1215 -15
-124 -29 -235 -31 -248 l-5 -23 -184 7 -185 7 0 -117 0 -116 178 0 177 0 0
-467 c0 -559 18 -809 80 -1120 78 -386 267 -745 530 -1008 202 -202 385 -305
540 -305 221 1 497 192 694 483 44 65 34 73 -65 48 -257 -65 -485 -51 -669 41
-442 223 -779 812 -856 1498 -16 147 -14 515 5 694 9 82 17 151 19 152 2 2 71
11 153 19 185 20 400 50 541 75 129 24 123 24 123 4 0 -9 9 -33 19 -53 11 -20
27 -59 36 -87 60 -191 260 -304 540 -304 52 0 95 -4 95 -8 0 -19 -50 -153 -84
-222 -60 -125 -55 -152 93 -504 144 -340 161 -400 161 -574 0 -137 15 -260 41
-324 11 -28 74 -166 141 -307 152 -323 228 -490 228 -503 0 -6 -31 -59 -69
-117 -247 -381 -307 -697 -217 -1142 13 -63 22 -116 20 -118 -1 -1 -18 8 -36
22 -86 65 -232 128 -330 142 -59 9 -83 -13 -94 -82 -9 -63 10 -269 42 -459
l27 -153 -28 -118 c-15 -65 -30 -161 -32 -214 -5 -81 -3 -102 15 -141 28 -64
58 -81 130 -76 68 5 124 30 212 97 36 27 66 48 67 48 0 -1 -16 -69 -37 -152
-59 -231 -71 -313 -77 -515 -3 -134 -1 -209 9 -273 l15 -88 -127 -252 c-212
-422 -341 -785 -400 -1130 -20 -118 -40 -351 -40 -469 0 -61 2 -68 20 -68 19
0 20 7 20 98 1 583 216 1223 663 1971 160 268 366 566 987 1429 l74 103 19
-53 c23 -67 116 -412 123 -458 5 -32 -9 -59 -144 -285 -456 -765 -755 -1390
-957 -2000 -92 -275 -160 -551 -190 -758 l-6 -47 342 2 342 3 93 244 c51 135
124 328 161 430 37 102 69 177 70 166 2 -11 9 -155 18 -320 28 -555 25 -525
49 -525 21 0 21 2 14 105 -18 268 -39 744 -48 1083 -15 624 3 782 134 1177
209 625 490 1228 860 1844 144 239 216 351 225 351 12 0 274 -245 310 -290 31
-38 33 -45 21 -64 -69 -106 -222 -369 -286 -486 -302 -563 -482 -1164 -555
-1859 -27 -257 -39 -853 -28 -1381 4 -217 8 -414 8 -437 l1 -43 193 0 193 0
33 208 c87 550 203 1055 337 1466 117 356 224 619 464 1141 339 736 462 1055
574 1486 89 345 124 582 133 894 6 239 -4 390 -39 565 -20 104 -44 165 -34 85
11 -74 28 -307 23 -311 -4 -4 -247 491 -247 504 0 19 225 122 265 122 25 0 86
-62 162 -164 41 -54 222 -321 404 -593 385 -578 422 -631 713 -1028 249 -339
442 -622 569 -835 79 -133 88 -154 107 -245 27 -130 37 -357 20 -462 -25 -157
-94 -302 -196 -412 -160 -173 -482 -315 -1002 -442 -114 -28 -317 -77 -452
-110 -265 -65 -589 -168 -765 -244 -236 -101 -395 -204 -551 -360 -102 -102
-240 -272 -229 -283 2 -2 28 22 56 54 102 115 266 272 348 332 170 127 380
228 674 326 211 70 357 110 726 196 481 113 691 180 926 295 268 132 413 295
485 545 27 93 38 308 21 430 -6 46 -9 85 -7 87 7 7 129 -252 179 -377 75 -188
92 -265 92 -410 -1 -115 -3 -132 -32 -207 -85 -223 -258 -398 -530 -536 -239
-121 -489 -213 -1038 -382 -418 -129 -538 -169 -780 -262 -633 -243 -996 -520
-1214 -923 -22 -41 -47 -92 -56 -113 -15 -36 -15 -37 7 -36 19 0 31 17 66 90
177 367 529 663 1047 878 53 23 101 38 106 35 5 -3 9 -15 9 -27 0 -74 126
-614 197 -847 34 -111 41 -125 62 -128 20 -3 23 0 17 15 -62 158 -185 660
-240 975 l-7 36 83 32 c152 58 370 130 743 245 486 150 768 252 957 346 43 22
84 39 92 39 16 0 55 -49 85 -109 71 -139 67 -408 -10 -649 -98 -304 -275 -547
-565 -775 -61 -48 -73 -71 -74 -139 0 -17 225 -18 4584 -18 l4584 0 6 27 c32
151 72 606 87 988 11 275 5 1319 -8 1352 -30 78 158 -223 343 -550 l39 -69 3
37 c4 42 -7 62 -243 456 l-141 236 -13 249 c-25 525 -78 904 -172 1239 -99
352 -274 687 -459 876 l-79 81 -11 112 c-26 271 -73 461 -156 644 -76 167
-209 331 -343 421 -72 49 -224 123 -291 142 -25 7 -46 14 -48 15 -2 1 8 40 23
87 133 437 159 1193 75 2162 -30 342 -74 807 -106 1113 -19 189 -33 349 -31
355 2 6 31 -15 65 -46 34 -31 67 -57 72 -57 30 0 17 37 -42 117 -36 49 -74
102 -86 120 -25 35 -44 147 -62 348 -10 122 -14 405 -5 405 2 0 64 -44 137
-97 208 -152 693 -498 801 -571 58 -39 100 -74 102 -87 3 -11 28 -128 56 -260
186 -879 414 -1536 812 -2335 122 -244 142 -280 145 -252 3 25 -24 88 -122
285 -338 683 -547 1253 -716 1952 -54 223 -132 586 -128 591 2 2 122 -76 268
-172 205 -136 588 -380 688 -438 9 -6 12 460 12 2314 l0 2322 -92 -7 c-288
-20 -693 -79 -1030 -149 l-168 -34 -197 103 c-109 57 -203 108 -209 113 -6 6
-27 54 -47 109 -107 295 -153 538 -181 971 -13 189 -15 205 -37 228 -23 24
-140 97 -212 130 -46 22 -49 -5 38 274 93 298 146 511 148 591 2 56 -3 75 -30
128 l-32 62 72 -6 c346 -30 450 -61 667 -198 401 -252 799 -593 1172 -1005
l138 -152 0 790 0 790 -1136 0 c-908 0 -1134 -3 -1127 -12 6 -7 44 -54 84
-105 87 -107 146 -203 155 -252 13 -66 -37 -270 -168 -686 -28 -88 -52 -163
-54 -167 -3 -4 -48 13 -102 38 -240 113 -770 333 -960 400 -37 14 -102 58
-220 153 -232 186 -456 356 -664 505 l-176 126 -1604 -2 c-881 -1 -1574 -3
-1538 -5 780 -33 1357 -94 1983 -208 791 -143 1378 -305 2197 -605 368 -135
911 -367 1150 -493 143 -76 199 -113 204 -139 2 -13 9 -106 16 -208 24 -387
77 -673 171 -928 17 -46 29 -85 27 -88 -3 -2 -58 21 -124 52 -616 291 -1720
724 -2504 982 -676 223 -1113 331 -1798 447 -397 67 -651 95 -1127 125 -93 5
-192 12 -220 15 -32 2 -131 37 -275 95 -124 50 -238 95 -255 101 -16 5 -97 34
-180 64 -493 181 -1286 425 -1960 602 -192 50 -235 63 -209 63 5 0 97 9 204
20 483 49 954 81 1525 103 39 2 -1783 4 -4047 5 l-4118 2 0 -3532z m7140 1872
c217 -87 487 -196 600 -243 l205 -85 6 -99 c31 -481 35 -1104 9 -1473 -60
-859 -245 -1607 -530 -2147 -80 -150 -189 -333 -199 -333 -27 0 -349 328 -482
490 -552 673 -980 1585 -1159 2470 -74 368 -102 651 -104 1064 l-1 279 145 34
c369 84 1062 214 1095 206 11 -3 198 -76 415 -163z m-1700 -297 c0 -1078 275
-2048 850 -3003 48 -80 113 -201 144 -270 149 -327 325 -613 546 -888 49 -62
86 -112 82 -112 -12 0 -218 174 -361 303 -566 512 -936 1146 -1196 2047 -165
575 -237 1102 -221 1640 7 225 21 448 30 457 5 5 95 31 114 32 9 1 12 -47 12
-206z m-182 75 c-4 -46 -10 -209 -13 -363 l-7 -280 -73 -225 c-208 -638 -314
-1125 -375 -1725 -36 -360 -44 -561 -45 -1072 0 -276 -1 -501 -2 -500 -16 17
-157 276 -228 422 -279 570 -388 1019 -387 1595 2 522 85 991 302 1689 28 90
49 165 47 168 -12 11 -155 -402 -221 -637 -179 -636 -217 -1284 -110 -1865 40
-222 119 -478 217 -712 l34 -81 -33 -143 c-80 -343 -117 -640 -118 -956 -1
-128 -2 -233 -3 -233 -1 0 -17 28 -35 62 -38 72 -135 180 -177 198 -80 33
-110 -11 -122 -183 -14 -194 -27 -289 -49 -355 -43 -130 -40 -129 -65 -7 -53
255 -182 481 -350 615 -70 55 -110 77 -160 88 -34 7 -37 11 -65 89 -58 168
-120 263 -170 263 -26 0 -52 -28 -122 -134 -65 -98 -55 -380 22 -629 12 -38
19 -71 17 -73 -2 -3 -17 0 -33 6 -45 17 -88 4 -127 -39 -19 -21 -38 -49 -42
-60 -9 -29 -21 -19 -94 83 -84 118 -112 171 -189 367 l-70 176 14 119 c31 268
78 556 150 913 25 123 43 225 41 227 -6 7 -81 -288 -121 -476 -37 -175 -78
-416 -96 -565 -6 -49 -13 -105 -16 -124 l-6 -34 -24 43 c-36 63 -83 119 -114
135 -25 13 -30 12 -77 -20 -116 -78 -138 -139 -137 -370 0 -138 4 -176 28
-279 15 -66 41 -158 58 -205 26 -76 123 -284 192 -411 23 -43 24 -55 31 -297
l6 -252 -63 25 c-89 36 -355 174 -373 194 -38 42 -44 680 -10 1035 84 876 353
1710 845 2615 103 189 255 449 452 773 94 153 168 281 165 283 -6 6 -284 -409
-402 -601 -106 -172 -251 -428 -320 -565 -25 -49 -92 -148 -160 -235 -907
-1162 -1478 -2381 -1774 -3780 -89 -425 -130 -738 -138 -1060 -11 -462 51
-803 212 -1167 186 -418 512 -743 834 -830 104 -28 326 -28 456 0 50 11 92 18
94 16 14 -13 -169 -214 -261 -288 -152 -122 -274 -171 -411 -164 -97 5 -169
31 -273 101 -290 195 -555 559 -678 930 -142 428 -191 1263 -120 2042 81 894
324 1944 639 2765 419 1089 963 1989 1790 2960 127 149 132 154 245 220 585
344 1231 609 2005 823 88 25 162 43 165 42 3 -2 2 -41 -2 -87z m3002 -238
c347 -144 625 -262 628 -265 5 -5 32 -223 51 -426 118 -1204 -19 -1957 -450
-2474 -79 -94 -264 -282 -312 -317 -27 -20 -26 -16 21 78 106 213 198 472 241
679 83 405 80 1018 -10 1840 -16 151 -19 220 -14 333 8 161 -4 479 -16 422 -4
-19 -14 -188 -23 -375 -40 -828 -96 -1251 -241 -1810 -91 -354 -186 -614 -320
-872 -119 -231 -285 -463 -435 -608 l-51 -50 51 90 c318 551 517 1237 600
2060 48 483 53 1146 14 1714 -5 78 -4 93 7 89 8 -3 124 -52 259 -108z m1017
-431 c463 -202 690 -309 1103 -516 361 -181 827 -433 842 -456 21 -32 149
-576 202 -859 56 -295 128 -830 113 -844 -6 -6 -234 155 -377 265 -580 450
-953 868 -1317 1476 -84 141 -96 168 -202 465 -62 173 -117 319 -122 324 -12
13 42 -190 97 -364 61 -192 198 -560 294 -790 143 -339 231 -521 520 -1065 31
-58 25 -53 -167 140 -109 110 -231 238 -269 285 -346 416 -610 885 -869 1545
-93 236 -185 495 -185 520 0 22 -6 24 337 -126z m-4011 -334 c29 -301 99 -660
188 -972 63 -218 185 -561 263 -735 l25 -57 -48 -63 c-195 -256 -445 -494
-744 -708 -63 -45 -127 -88 -143 -97 l-30 -15 7 258 c12 468 35 757 86 1116
65 452 171 900 322 1353 46 140 53 155 55 120 2 -22 10 -112 19 -200z m3891
-255 c124 -297 267 -585 405 -813 33 -55 58 -101 56 -103 -6 -6 -292 32 -455
61 -79 14 -145 25 -146 25 -1 0 -2 188 -2 418 -1 398 -6 509 -41 837 -4 42 6
23 59 -115 35 -91 91 -230 124 -310z m-743 -145 c17 -195 36 -451 36 -502 l0
-31 -66 21 -66 22 7 50 c27 203 36 277 51 440 9 102 18 184 20 183 1 -2 9 -84
18 -183z m3015 -357 c499 -300 1111 -711 1919 -1291 186 -133 297 -219 303
-234 20 -53 4 -477 -26 -689 -41 -291 -135 -596 -266 -856 -129 -258 -281
-468 -499 -692 -395 -405 -831 -661 -1441 -845 -157 -48 -167 -49 -148 -22
156 218 229 352 287 522 56 161 112 436 112 544 0 19 20 82 44 139 41 95 94
254 111 331 9 42 -9 20 -25 -30 -23 -71 -130 -318 -177 -405 -82 -151 -163
-261 -283 -381 -102 -102 -324 -279 -335 -267 -3 2 16 33 42 69 142 195 278
444 351 645 135 367 202 838 202 1409 0 454 -46 875 -155 1420 -44 218 -134
610 -161 698 -3 9 -2 17 1 17 4 0 68 -37 144 -82z m-1479 -93 c76 -114 191
-277 243 -342 7 -10 -6 -13 -62 -13 l-71 0 -26 58 c-61 135 -190 451 -181 442
3 -3 47 -68 97 -145z m-1567 -105 c62 -19 65 -21 71 -57 3 -21 6 -55 6 -76 0
-45 -3 -45 -108 4 -61 28 -63 30 -58 59 3 16 9 44 12 60 3 17 7 30 9 30 1 0
32 -9 68 -20z m-12 -184 l84 -34 -1 -189 c-3 -395 -56 -692 -181 -1008 -65
-165 -184 -409 -194 -398 -14 17 -30 230 -36 483 l-6 265 51 156 c61 188 110
369 157 586 19 89 35 164 35 167 0 9 -1 9 91 -28z m834 -21 c154 -26 372 -55
413 -55 25 0 62 -25 62 -42 0 -18 -668 -4 -687 15 -1 2 1 29 4 61 l6 58 31 -7
c17 -3 94 -17 171 -30z m1131 -207 c167 -197 444 -460 702 -667 56 -45 102
-84 102 -86 0 -2 -24 -17 -52 -33 -71 -40 -159 -69 -239 -77 -64 -7 -71 -5
-157 34 -50 22 -102 43 -116 47 -15 3 -35 18 -45 33 -23 33 -53 92 -49 96 2 2
55 -5 118 -16 63 -10 122 -18 130 -18 25 1 -126 47 -202 61 -66 12 -72 15 -96
53 -27 42 -332 638 -332 648 0 6 49 13 116 15 41 2 43 0 120 -90z m-1086 61
c118 -6 270 -8 337 -4 l122 6 83 -113 c118 -159 224 -284 355 -419 62 -64 113
-118 113 -121 0 -3 -48 -8 -106 -11 -506 -31 -1170 -353 -1604 -777 -134 -130
-126 -126 105 60 82 66 153 120 157 120 4 0 -5 -30 -19 -67 -53 -138 -194
-558 -191 -571 2 -8 42 44 90 115 107 157 195 268 307 385 81 86 240 222 249
214 2 -3 -9 -24 -26 -48 -254 -371 -175 -979 165 -1260 121 -100 267 -151 433
-151 186 0 331 64 481 213 165 164 255 379 266 640 8 199 -24 346 -108 487
-43 71 -153 189 -231 248 -70 53 -62 55 74 25 296 -65 591 -219 795 -413 137
-132 203 -236 203 -323 0 -48 -49 -175 -105 -274 -54 -96 -138 -224 -167 -257
-11 -12 -18 -27 -16 -33 6 -19 253 184 401 329 l137 136 0 -50 c0 -74 -38
-393 -61 -515 -53 -280 -117 -478 -224 -696 -74 -150 -226 -391 -324 -513 -82
-103 -58 -113 75 -30 209 132 428 337 543 512 36 53 66 95 68 93 7 -7 -36
-251 -62 -351 -56 -213 -156 -417 -306 -618 -54 -72 -78 -112 -71 -119 10 -10
69 4 261 63 51 16 96 29 98 29 15 0 -239 -398 -362 -570 -134 -186 -258 -341
-569 -714 -441 -529 -590 -729 -879 -1183 -40 -62 -56 -77 -124 -118 -220
-130 -1108 -532 -1201 -543 -59 -7 -137 22 -372 135 -226 109 -332 152 -635
258 -654 228 -1026 423 -1374 721 -291 249 -521 574 -670 950 -22 56 -76 206
-119 335 -84 244 -195 556 -231 647 -18 46 -20 65 -15 155 13 215 -53 355
-162 345 l-35 -3 -76 135 c-91 163 -188 307 -306 454 -48 60 -89 119 -92 130
-19 97 -41 296 -32 296 4 0 31 -9 60 -20 74 -28 181 -50 245 -50 28 0 52 -3
52 -6 0 -3 -23 -60 -51 -127 -37 -86 -49 -125 -42 -136 5 -8 63 -31 129 -51
161 -50 197 -65 433 -186 112 -57 207 -102 209 -99 3 3 -8 15 -24 27 -69 54
-173 153 -229 217 -155 178 -175 282 -99 510 53 159 186 387 309 533 97 114
242 217 348 246 l38 11 -63 -68 c-117 -126 -204 -319 -229 -507 -16 -121 -6
-308 21 -404 73 -257 305 -490 564 -565 42 -12 82 -16 140 -13 106 6 175 39
268 126 129 122 198 319 198 565 0 273 -77 491 -245 690 l-59 71 59 -34 c101
-57 275 -170 373 -242 52 -38 97 -67 100 -63 9 9 -77 180 -130 256 -25 37 -50
73 -54 80 -4 7 27 -12 70 -42 121 -85 126 -86 43 -5 -182 176 -456 314 -752
378 -146 32 -356 31 -480 -1 -170 -44 -335 -126 -493 -246 -155 -117 -159
-135 -8 -36 76 50 187 115 245 145 101 52 229 102 237 93 3 -2 -31 -24 -73
-49 -159 -93 -266 -185 -378 -323 -75 -93 -77 -95 -148 -117 -62 -20 -94 -23
-235 -23 -89 0 -162 -3 -162 -6 0 -13 138 -79 196 -94 32 -8 84 -15 116 -15
33 0 58 -4 58 -10 0 -6 -13 -36 -28 -68 -16 -31 -39 -83 -52 -115 -25 -63 -56
-95 -134 -134 -100 -51 -200 -65 -292 -42 -57 15 -64 31 -64 157 1 297 55 727
131 1026 l12 48 77 -148 c42 -82 92 -176 111 -209 108 -186 153 -255 166 -255
13 0 14 38 8 278 l-7 277 158 77 c326 160 572 342 789 585 50 56 92 102 95
102 3 1 32 -50 65 -111 79 -148 193 -330 283 -451 41 -55 72 -100 70 -102 -2
-1 -60 -8 -130 -14 -70 -6 -178 -22 -240 -35 -123 -26 -262 -65 -256 -72 2 -2
60 7 129 21 151 29 369 55 465 55 l71 0 102 -114 c186 -209 432 -433 703 -639
69 -53 131 -97 137 -97 30 0 14 30 -67 123 -163 187 -311 384 -420 557 -68
110 -216 380 -210 386 2 2 33 -36 69 -84 147 -200 361 -438 518 -577 55 -49
102 -97 104 -107 3 -10 12 -18 21 -18 9 0 63 -35 120 -77 242 -180 562 -353
908 -494 79 -31 111 -40 119 -32 8 8 -2 43 -40 130 -69 162 -132 336 -170 469
-34 119 -81 336 -81 369 1 13 35 49 96 100 121 102 268 253 367 377 66 83 129
139 142 126 2 -2 -12 -29 -31 -60 -31 -51 -100 -218 -90 -218 2 0 30 46 61
103 106 188 128 215 209 252 210 96 432 160 719 210 110 18 202 37 205 41 17
18 -304 -22 -453 -57 -200 -47 -325 -89 -517 -175 -65 -29 -118 -50 -118 -48
0 2 12 23 27 47 101 160 212 484 258 757 22 125 21 123 48 117 12 -3 119 -11
237 -18z m-3470 -545 c11 -25 20 -49 20 -52 0 -4 -42 -53 -92 -110 -165 -182
-352 -338 -546 -456 -98 -59 -192 -109 -192 -102 0 2 33 28 72 58 221 162 513
443 648 621 36 47 66 86 68 86 1 1 12 -20 22 -45z m4580 -199 l44 -45 -35 10
c-54 17 -257 50 -300 50 -21 0 -39 4 -39 9 0 12 51 17 185 19 l101 2 44 -45z
m-2350 -435 c31 -435 103 -749 261 -1141 32 -81 59 -149 59 -152 0 -23 -529
231 -708 340 -112 68 -342 231 -342 243 0 3 43 51 97 105 251 260 427 523 569
852 l49 112 2 -102 c1 -56 7 -172 13 -257z m3269 267 c47 -35 128 -91 179
-125 l92 -63 0 -63 0 -63 -37 -7 c-21 -3 -84 -9 -139 -12 l-102 -7 -133 93
c-168 117 -158 107 -129 127 47 32 112 97 142 140 16 24 31 43 35 43 3 0 44
-28 92 -63z m2671 -264 l225 -164 63 -157 c125 -312 296 -638 491 -932 53 -80
100 -152 105 -160 23 -37 -153 132 -292 281 -332 355 -545 647 -775 1065 -63
112 -67 124 -67 183 0 47 3 60 13 55 6 -5 113 -81 237 -171z m-4239 45 c139
-241 286 -370 527 -464 85 -33 93 -39 88 -59 -4 -15 2 -31 15 -46 49 -55 52
-66 45 -142 -18 -190 -89 -342 -225 -482 -193 -198 -484 -207 -680 -21 -118
112 -204 278 -232 443 -6 37 -15 86 -19 108 -9 40 5 90 25 90 33 1 168 82 214
127 99 99 128 177 138 378 3 73 11 128 17 132 28 19 47 5 87 -64z m4122 -312
l70 -119 -12 -226 c-40 -754 -140 -1302 -337 -1850 -164 -453 -340 -779 -849
-1566 -633 -980 -746 -1194 -932 -1753 l-67 -202 -211 -159 c-485 -366 -739
-612 -938 -909 -81 -121 -209 -384 -256 -529 -78 -234 -109 -439 -118 -760 -6
-213 -7 -223 -28 -243 -22 -20 -24 -21 -89 -6 -254 59 -452 213 -616 481 -119
194 -207 463 -241 738 -17 141 -7 459 20 616 104 605 350 1144 830 1820 154
216 293 392 621 786 442 530 603 748 830 1118 57 93 111 171 119 174 73 25
246 95 335 135 608 276 1135 774 1425 1348 191 376 283 738 307 1198 l7 134
30 -54 c17 -29 62 -106 100 -172z m-3747 180 c38 -38 43 -70 19 -116 -19 -37
-43 -50 -90 -50 -97 0 -133 138 -47 184 45 25 80 20 118 -18z m1474 -151 l0
-45 -41 27 -41 27 34 17 c18 10 36 18 41 19 4 0 7 -20 7 -45z m2953 -174 l237
-175 0 -185 c0 -102 7 -249 15 -326 8 -77 15 -144 15 -150 0 -32 -241 378
-340 580 -82 165 -190 415 -190 437 0 13 1 12 263 -181z m-466 -188 c152 -220
456 -570 660 -762 l92 -86 40 -390 c164 -1579 194 -2289 120 -2865 -78 -613
-305 -1047 -773 -1478 -239 -221 -456 -364 -996 -660 -703 -384 -1144 -656
-1525 -942 -404 -304 -647 -535 -796 -757 -29 -43 -53 -79 -55 -81 -1 -2 -26
12 -56 32 -99 66 -171 89 -289 94 -100 4 -155 -4 -235 -35 -16 -6 -17 9 -11
208 12 411 79 700 235 1018 112 229 272 441 493 656 171 166 324 292 674 552
1034 769 1070 798 1351 1078 215 213 335 353 527 610 176 236 435 633 512 785
31 63 -9 10 -80 -105 -139 -225 -493 -724 -582 -820 -10 -11 -54 -63 -98 -115
-143 -169 -302 -336 -432 -453 -145 -130 -285 -248 -290 -243 -2 1 21 50 51
107 241 461 364 911 383 1397 l6 164 66 106 c126 207 273 469 350 627 274 558
452 1223 516 1930 15 173 35 467 35 540 1 34 2 37 13 23 7 -9 49 -69 94 -135z
m-10912 -218 c24 -49 51 -115 60 -145 l17 -56 -25 -37 c-49 -72 -44 -157 20
-365 93 -302 102 -391 53 -517 -12 -29 -12 -28 -36 53 -31 107 -80 203 -143
282 -90 112 -154 356 -155 595 -1 109 2 137 18 170 l20 40 7 -90 c4 -50 16
-115 28 -145 21 -57 79 -156 86 -148 2 2 -12 46 -32 98 -30 79 -37 111 -41
191 -4 94 6 156 31 187 16 21 44 -13 92 -113z m2769 48 c46 -161 122 -296 197
-352 34 -25 47 -28 136 -30 130 -4 172 -7 178 -13 3 -2 14 -40 26 -84 31 -115
31 -300 0 -409 -45 -160 -133 -290 -233 -341 -126 -64 -298 -26 -431 96 -125
114 -216 273 -243 423 -6 36 -5 38 27 49 l34 12 -40 11 c-37 11 -40 14 -43 51
-3 37 0 41 37 62 64 36 147 118 172 169 20 42 24 68 28 213 l6 165 45 23 c73
36 82 32 104 -45z m-3617 -60 c50 -69 96 -165 168 -344 75 -189 113 -259 211
-389 l73 -97 -9 -79 c-5 -49 -5 -136 2 -229 15 -228 9 -315 -29 -397 -18 -38
-34 -68 -36 -68 -2 0 -45 51 -95 113 -263 326 -437 681 -492 1003 -36 208 -20
412 35 479 l25 30 -7 -30 c-15 -57 -6 -187 16 -249 25 -69 79 -169 116 -211
32 -36 31 -35 -28 85 -51 105 -77 198 -77 275 1 61 16 132 36 163 14 21 17 21
36 8 11 -8 36 -36 55 -63z m3826 46 c47 -21 60 -80 26 -123 -47 -59 -138 -13
-125 64 5 35 36 70 62 70 7 0 24 -5 37 -11z m-2744 -309 c72 -46 198 -183 255
-279 100 -166 148 -338 150 -531 2 -188 -37 -307 -131 -410 l-50 -54 -79 70
c-43 38 -117 103 -164 144 -47 40 -89 80 -93 87 -6 10 2 37 22 78 67 135 62
252 -19 515 -77 250 -86 333 -45 396 15 23 22 26 61 21 25 -2 64 -18 93 -37z
m717 -175 c143 -145 233 -450 204 -692 -13 -111 -31 -164 -82 -236 l-20 -28
-41 38 c-23 21 -106 87 -184 147 -79 60 -143 115 -143 123 0 7 11 35 24 61 59
118 83 225 96 430 5 87 15 173 21 190 18 52 50 43 125 -33z m-1140 -271 c53
-25 147 -135 188 -220 97 -198 112 -474 41 -748 -23 -86 -77 -231 -94 -249 -4
-4 -15 18 -25 50 -10 31 -29 73 -41 93 -24 38 -80 90 -96 90 -25 0 -52 -25
-80 -75 -17 -30 -34 -57 -37 -59 -7 -4 -214 23 -220 29 -2 2 22 36 53 77 31
40 71 105 90 143 55 111 60 156 45 396 -17 279 -2 383 64 454 37 39 61 43 112
19z m-1601 -113 c94 -6 224 -13 290 -16 66 -3 137 -8 158 -11 l37 -6 1 -196
c0 -109 4 -246 8 -307 5 -60 7 -111 6 -112 -6 -9 -153 102 -221 166 -135 128
-240 166 -290 107 -31 -35 -38 -99 -19 -166 8 -30 17 -104 18 -165 3 -87 8
-122 26 -165 66 -160 234 -337 442 -465 53 -33 66 -45 52 -49 -320 -95 -870
-185 -1136 -186 l-49 0 7 43 c16 105 108 547 144 692 64 260 220 775 253 838
8 16 18 18 56 13 26 -3 124 -10 217 -15z m3087 -308 c96 -125 190 -269 267
-409 l62 -111 -69 -69 c-38 -38 -88 -102 -113 -143 l-44 -75 -18 60 c-96 311
-208 875 -170 851 6 -4 44 -51 85 -104z m-450 -140 c81 -63 158 -128 172 -146
32 -43 55 -90 136 -277 75 -176 137 -294 202 -387 56 -80 211 -254 286 -319
32 -28 75 -76 95 -106 33 -48 41 -70 62 -190 45 -244 105 -446 211 -705 107
-263 508 -1135 729 -1588 l127 -260 -6 -210 c-10 -361 -62 -663 -191 -1095
-49 -162 -174 -511 -222 -618 l-28 -62 -99 183 c-215 397 -375 612 -638 856
-88 82 -95 91 -71 91 59 0 -4 29 -157 74 -225 65 -359 125 -530 239 -151 101
-315 253 -421 392 -179 233 -290 466 -519 1090 -101 274 -157 406 -290 682
-115 239 -148 291 -245 393 -44 47 -120 131 -169 188 -48 56 -98 110 -111 118
-20 13 -56 15 -197 15 -142 -1 -187 2 -250 18 -142 37 -245 104 -293 192 -15
28 -24 50 -19 47 66 -31 109 -48 116 -46 5 2 -19 23 -53 48 -94 68 -142 145
-124 200 13 40 36 41 140 4 191 -66 347 -65 618 3 114 29 162 36 242 37 93 1
104 -1 154 -29 29 -16 102 -75 161 -131 59 -57 136 -123 170 -148 81 -60 233
-146 338 -191 81 -35 208 -61 225 -45 5 4 -38 22 -95 40 -148 46 -332 144
-483 256 l-27 20 30 55 c59 104 105 280 120 452 l7 87 90 -72 c50 -39 157
-139 240 -221 172 -173 215 -199 320 -199 34 0 71 4 81 10 20 11 9 14 -100 26
-71 9 -137 50 -224 140 -99 105 -234 230 -327 303 l-73 57 33 66 c68 136 113
324 131 543 3 48 8 87 11 87 11 0 288 -248 333 -298 28 -31 99 -124 158 -207
208 -292 291 -377 437 -446 120 -57 156 -60 61 -5 -158 92 -248 177 -377 352
-41 56 -110 150 -154 209 -44 59 -84 113 -89 120 -7 9 3 27 31 58 22 26 54 73
72 106 33 62 71 193 71 243 0 35 -13 43 172 -99z m-2515 36 c50 -24 184 -147
239 -219 38 -49 59 -61 66 -38 3 7 39 -10 94 -44 294 -181 558 -284 824 -318
52 -7 96 -14 98 -15 7 -6 -60 -165 -91 -217 -19 -30 -78 -105 -133 -166 -119
-134 -112 -132 -300 -68 -332 114 -546 241 -717 426 -118 128 -177 249 -177
364 l0 50 38 -35 c20 -20 53 -47 72 -60 l35 -24 -20 26 c-11 14 -40 50 -64 80
-57 70 -84 131 -85 195 -1 85 36 104 121 63z m2863 -34 c0 -37 88 -409 134
-569 29 -99 43 -163 37 -169 -17 -17 -93 130 -208 398 -35 82 -69 155 -75 162
-7 9 1 28 29 71 22 33 46 80 53 106 13 47 29 47 30 1z m-1885 -130 c32 -44 89
-117 127 -163 l69 -82 -34 -48 c-20 -26 -46 -57 -59 -69 l-24 -23 -64 18 c-43
13 -65 24 -70 38 -11 30 -22 430 -12 419 5 -5 35 -46 67 -90z m2451 -292 c9
-10 27 -38 38 -63 18 -39 21 -63 21 -190 -1 -122 -34 -471 -50 -517 -5 -14
-306 292 -353 359 l-32 47 40 76 c102 194 206 305 287 305 17 0 39 -8 49 -17z
m-1929 -91 c46 -61 65 -130 70 -260 8 -175 -28 -355 -98 -493 -16 -32 -33 -60
-39 -64 -6 -4 -51 32 -100 78 -87 83 -188 147 -234 147 -53 1 -48 16 47 123
103 117 134 169 197 327 53 133 86 192 108 188 9 -2 31 -22 49 -46z m2083
-572 c100 -276 151 -436 191 -595 126 -503 258 -907 453 -1389 42 -105 75
-195 72 -202 -3 -7 -14 -18 -26 -24 -19 -10 -24 -4 -72 97 -97 207 -398 872
-458 1014 -92 214 -184 500 -219 679 -17 85 -36 178 -42 205 -9 41 -7 80 10
210 12 88 21 165 21 170 1 20 19 -23 70 -165z m-2965 57 c44 -19 112 -44 150
-57 39 -12 74 -26 78 -30 9 -8 -183 -57 -242 -62 l-35 -3 -17 85 c-19 90 -21
100 -16 100 1 0 38 -15 82 -33z m-93 -127 l3 -35 -105 0 c-102 0 -188 11 -177
22 3 3 63 20 134 37 88 23 130 29 135 22 3 -6 8 -27 10 -46z m10934 -622 c-11
-178 -49 -471 -65 -496 -3 -5 -79 -11 -172 -14 l-166 -4 58 91 c32 49 123 190
201 312 79 123 145 223 147 223 2 0 1 -51 -3 -112z m-10643 82 c21 -16 167
-178 254 -281 11 -14 5 -22 -47 -62 -55 -43 -73 -67 -52 -67 5 0 39 19 77 41
l69 42 27 -30 c42 -48 129 -209 234 -437 122 -264 143 -316 255 -621 128 -348
181 -475 276 -665 85 -171 177 -317 270 -431 122 -150 330 -326 486 -411 125
-68 118 -55 70 -136 -141 -237 -286 -349 -546 -419 l-121 -33 91 4 c107 5 218
39 309 94 88 53 201 172 280 296 50 77 73 106 84 102 9 -3 75 -25 146 -50 72
-25 134 -47 138 -49 5 -1 -35 -72 -89 -157 -283 -452 -518 -893 -684 -1284
-34 -81 -64 -146 -66 -144 -1 2 -26 93 -54 203 -148 581 -248 792 -454 965
-95 79 -102 92 -231 460 -160 454 -238 642 -480 1155 -70 149 -136 295 -147
325 -15 43 -22 98 -28 250 -11 251 -27 306 -190 685 -124 288 -127 306 -61
445 25 51 52 120 61 154 16 57 19 61 51 67 19 4 37 7 40 8 4 0 18 -8 32 -19z
m3295 -652 c39 -59 105 -146 145 -195 88 -105 279 -291 360 -353 l59 -44 -6
-100 c-4 -56 -9 -127 -12 -159 l-6 -57 -34 30 c-52 45 -78 47 -164 16 -41 -15
-82 -29 -91 -32 -13 -4 -27 19 -64 108 -123 292 -248 640 -339 941 -36 120
-66 221 -66 225 0 4 33 -56 73 -133 40 -77 105 -188 145 -247z m684 -679 c91
-63 265 -167 357 -214 39 -19 71 -37 71 -40 0 -2 -17 -13 -39 -24 -54 -28
-135 -104 -215 -205 -39 -47 -73 -83 -77 -79 -4 5 -50 70 -103 146 l-97 139
10 143 c6 79 11 153 11 164 0 12 2 21 4 21 3 0 37 -23 78 -51z m8995 -331
c171 -132 304 -362 378 -657 32 -126 67 -411 50 -411 -2 0 -26 14 -52 30 -320
203 -924 161 -1613 -111 -271 -107 -654 -310 -907 -480 -436 -293 -732 -553
-1417 -1246 -373 -378 -559 -548 -800 -736 -108 -84 -152 -113 -154 -102 -6
29 29 179 74 312 24 72 44 139 44 148 0 45 283 343 500 526 261 221 900 739
1010 820 83 61 457 276 855 493 359 196 548 310 708 428 170 126 183 134 366
234 441 242 697 463 848 732 19 34 40 62 45 62 6 0 36 -19 65 -42z m-5619 -56
c-1 -4 -33 -64 -69 -132 -179 -336 -314 -729 -380 -1105 -26 -151 -37 -477
-20 -621 49 -413 195 -750 434 -1000 l90 -95 -56 -142 c-52 -133 -196 -521
-247 -667 -13 -36 -26 -69 -30 -73 -18 -21 -291 646 -410 1003 -101 299 -124
420 -124 645 0 135 5 199 17 255 25 108 99 323 107 313 12 -12 40 -181 41
-243 1 -55 1 -55 14 -25 24 52 18 157 -21 328 -87 391 -200 692 -364 968 l-60
100 33 14 c438 185 774 338 927 424 104 59 125 68 118 53z m-1056 -610 c148
-254 259 -532 328 -823 l23 -95 -43 -110 c-72 -184 -101 -316 -107 -486 -6
-164 6 -285 43 -441 24 -101 104 -354 130 -412 7 -16 40 -100 72 -185 61 -158
174 -433 256 -619 26 -58 44 -103 42 -100 -2 2 -47 69 -100 148 -349 520 -717
911 -1124 1195 -72 50 -73 52 -68 86 3 19 35 115 71 212 76 209 79 235 31 306
-53 80 -176 229 -271 330 -136 144 -204 181 -239 130 -25 -36 -21 -51 9 -32
39 25 70 6 187 -114 172 -178 308 -356 308 -403 0 -16 -24 -95 -54 -176 -77
-212 -88 -249 -84 -280 2 -23 27 -46 129 -123 138 -104 289 -228 289 -237 0
-17 -166 -223 -179 -223 -4 0 -22 35 -41 78 -116 269 -342 663 -562 980 l-85
124 -8 151 c-15 270 -17 252 40 345 113 186 415 568 606 766 l95 99 47 -11
c60 -16 115 -14 152 3 17 7 35 14 40 14 6 0 35 -43 67 -97z m-5774 -314 c33
-84 86 -225 117 -313 107 -303 157 -440 180 -486 13 -25 52 -70 89 -103 36
-32 66 -62 66 -68 0 -21 -124 -212 -226 -348 -65 -87 -121 -151 -153 -174 -49
-36 -51 -37 -76 -20 -24 16 -59 16 -96 0 -13 -6 -25 10 -57 76 -22 46 -63 114
-91 152 -53 74 -70 125 -106 331 -64 368 3 680 217 1013 33 50 64 92 68 92 5
0 35 -69 68 -152z m4787 87 c82 -15 225 -56 254 -75 10 -6 -10 -39 -81 -131
-138 -179 -262 -368 -277 -421 -11 -37 -11 -74 -1 -192 7 -81 10 -149 8 -152
-4 -4 -272 352 -321 426 -16 24 -15 31 27 155 45 132 115 315 141 366 22 42
103 49 250 24z m-295 -13 c0 -5 -12 -37 -27 -73 -14 -35 -52 -135 -83 -222
-31 -87 -60 -158 -64 -158 -12 0 -227 313 -223 325 5 15 173 83 274 110 96 27
123 30 123 18z m-3956 -1123 c37 -48 137 -231 150 -274 6 -19 2 -20 -109 -17
-124 4 -233 -13 -313 -48 -25 -11 -46 -19 -47 -18 -2 2 37 59 87 128 49 68
110 159 135 202 25 43 49 78 52 78 3 -1 23 -23 45 -51z m-1188 -10 c127 -39
221 -95 311 -185 71 -71 89 -97 137 -195 l55 -114 -14 -53 c-14 -51 -10 -112
10 -165 14 -36 -231 -293 -360 -378 -33 -22 -82 -46 -110 -54 -143 -43 -178
69 -114 367 l30 143 -25 145 c-44 253 -58 449 -36 491 13 24 32 24 116 -2z
m1359 -330 c4 -5 -440 -636 -470 -667 -5 -5 -118 147 -163 217 l-39 62 5 102
c2 56 9 108 14 114 17 22 149 105 206 130 96 42 157 52 304 50 75 -1 139 -5
143 -8z m-714 -180 c18 -35 8 -173 -15 -198 -29 -31 -63 -27 -87 12 -27 42
-24 154 5 186 26 29 81 28 97 0z m44 -287 c24 -38 128 -181 166 -228 6 -7 -37
-75 -118 -190 -166 -236 -319 -466 -428 -644 -49 -80 -90 -147 -92 -149 -9
-12 -15 17 -25 122 -20 202 10 440 93 743 l40 148 79 87 c43 48 88 101 100
117 19 26 27 29 59 25 20 -2 47 0 61 6 14 5 27 10 30 10 3 1 18 -20 35 -47z
m5637 -119 c24 -27 25 -33 27 -163 3 -251 36 -554 86 -794 14 -66 24 -121 22
-122 -1 -2 -43 74 -92 168 -63 121 -105 189 -142 229 -50 54 -53 59 -53 110 0
57 -39 233 -65 295 -22 53 -20 61 31 117 25 28 68 81 96 119 28 37 54 68 58
68 3 0 18 -12 32 -27z m1481 -188 c43 -14 84 -25 92 -25 31 0 22 -24 -51 -132
-232 -345 -415 -677 -558 -1012 -33 -77 -62 -127 -102 -173 -55 -65 -124 -163
-190 -270 -33 -54 -35 -55 -29 -23 25 121 231 764 350 1090 66 181 234 618
246 642 8 14 18 11 86 -28 43 -25 113 -56 156 -69z m616 45 c73 -28 138 -62
190 -100 41 -30 43 -34 38 -72 -3 -22 -8 -42 -10 -45 -3 -3 -27 11 -53 31
-163 125 -361 136 -540 31 -23 -14 -45 -25 -48 -25 -3 0 -6 19 -6 42 0 35 6
47 40 79 79 75 270 104 389 59z m-493 -326 c-23 -176 -45 -441 -46 -531 0 -28
-6 -35 -67 -69 -157 -87 -333 -196 -408 -252 -44 -33 -81 -59 -83 -57 -6 5 90
213 172 370 45 88 124 230 176 315 99 164 273 430 278 425 2 -1 -8 -92 -22
-201z m536 153 c40 -20 90 -51 111 -69 l38 -33 -30 -110 c-32 -115 -61 -266
-61 -317 l0 -30 -35 26 c-19 15 -60 39 -91 53 -95 43 -257 30 -398 -32 -31
-14 -59 -25 -62 -25 -8 0 3 140 26 318 20 160 14 149 114 203 92 49 131 59
228 56 76 -3 95 -7 160 -40z m-1590 -307 c79 -107 215 -307 266 -392 l23 -37
-74 -233 c-41 -128 -94 -299 -117 -380 -24 -82 -47 -148 -51 -148 -33 0 -108
293 -160 630 -22 143 -38 593 -25 684 l7 46 23 -27 c13 -16 61 -80 108 -143z
m-153 -557 c20 -139 61 -354 81 -422 5 -19 8 -36 6 -38 -4 -4 -163 239 -224
343 -34 57 -49 99 -77 221 l-35 151 20 54 c31 77 93 189 147 266 l48 67 6
-250 c5 -169 14 -296 28 -392z m1646 343 c21 -9 63 -35 92 -57 51 -38 53 -41
53 -88 l0 -48 -82 41 c-81 40 -86 41 -199 44 -107 4 -121 2 -208 -27 -52 -17
-95 -30 -96 -29 -2 2 -1 24 2 50 5 46 6 46 72 77 102 47 166 61 251 57 42 -2
93 -11 115 -20z m-22 -167 c115 -38 201 -109 251 -206 87 -174 147 -566 150
-981 l1 -242 -145 -49 c-247 -83 -429 -165 -495 -222 -47 -41 -89 -103 -146
-212 l-46 -88 -89 103 c-48 57 -192 221 -319 366 -126 145 -231 270 -233 277
-4 16 57 215 71 233 5 7 87 56 181 109 307 172 322 185 120 96 -122 -53 -288
-145 -407 -224 -49 -32 -91 -59 -95 -59 -6 1 -51 57 -134 170 l-27 37 60 99
c173 284 312 415 650 612 177 104 305 168 376 187 77 21 203 18 276 -6z
m-1083 -1138 c-24 -78 -29 -79 -70 -21 l-20 27 53 35 c28 20 53 34 55 33 2 -2
-7 -35 -18 -74z"/>
<path d="M10644 10069 c-6 -11 62 -89 78 -89 19 0 5 39 -25 68 -36 35 -42 37
-53 21z"/>
<path d="M10510 10019 c0 -21 52 -99 66 -99 22 0 17 23 -16 68 -29 41 -50 53
-50 31z"/>
<path d="M10089 9850 c-176 -52 -280 -56 -499 -21 -30 5 -56 8 -58 6 -1 -1 19
-12 45 -23 153 -66 403 -49 571 38 70 36 62 36 -59 0z"/>
<path d="M6425 9204 c-109 -49 -202 -71 -373 -89 -80 -9 -148 -18 -151 -20 -2
-3 55 -5 128 -5 160 0 261 18 356 65 60 29 141 84 125 84 -3 0 -41 -16 -85
-35z"/>
<path d="M5476 9197 c-27 -28 -35 -57 -13 -56 21 0 61 59 49 71 -7 7 -18 3
-36 -15z"/>
<path d="M5622 9174 c-25 -17 -54 -68 -45 -78 12 -11 20 -6 52 35 36 44 31 70
-7 43z"/>
<path d="M7390 9110 c-1 -43 -30 -109 -71 -161 -34 -43 -24 -51 22 -16 66 48
99 147 64 193 -14 18 -14 17 -15 -16z"/>
<path d="M8990 8568 c-28 -24 -75 -62 -103 -85 -108 -89 -313 -173 -655 -267
-434 -120 -746 -152 -989 -101 -70 15 -85 16 -99 4 -22 -18 -14 -86 31 -267
124 -502 335 -822 640 -968 122 -59 189 -75 330 -80 l120 -3 -110 18 c-133 22
-215 44 -281 72 -65 28 -201 119 -242 161 l-32 34 29 86 c67 199 164 351 326
513 285 285 617 420 989 402 131 -7 234 -29 343 -74 l68 -29 -1 -129 c-1 -103
-7 -153 -28 -239 -88 -364 -330 -615 -721 -747 -111 -38 -110 -37 -104 -43 7
-8 131 22 209 49 199 71 400 227 513 398 215 324 232 824 39 1127 -56 88 -181
210 -216 210 -2 0 -27 -19 -56 -42z"/>
<path d="M15734 8755 c3 -16 20 -104 37 -195 63 -333 170 -785 265 -1119 163
-566 422 -1224 752 -1911 58 -119 61 -123 61 -84 1 31 -17 78 -73 195 -185
389 -498 1130 -483 1146 3 2 44 -61 92 -139 90 -146 364 -563 429 -653 36 -50
36 -50 36 -19 0 22 -22 62 -76 140 -108 157 -355 543 -466 729 -83 140 -102
180 -146 315 -127 391 -271 932 -392 1475 -17 76 -34 142 -37 145 -3 3 -3 -8
1 -25z"/>
<path d="M5435 470 c8 -98 30 -229 61 -363 22 -92 29 -107 46 -107 16 0 19 5
15 22 -3 13 -29 127 -57 253 -57 260 -73 309 -65 195z"/>
</g>
</svg>
