<?xml version="1.0" standalone="no"?>
<!DOCTYPE svg PUBLIC "-//W3C//DTD SVG 20010904//EN"
 "http://www.w3.org/TR/2001/REC-SVG-20010904/DTD/svg10.dtd">
<svg version="1.0" xmlns="http://www.w3.org/2000/svg"
 width="682.000000pt" height="682.000000pt" viewBox="0 0 682.000000 682.000000"
 preserveAspectRatio="xMidYMid meet">
<metadata>
Created by potrace 1.14, written by Peter Selinger 2001-2017
</metadata>
<g transform="translate(0.000000,682.000000) scale(0.100000,-0.100000)"
fill="#000000" stroke="none">
<path d="M3480 6691 c0 -6 -6 -8 -14 -5 -8 3 -24 0 -36 -6 -17 -9 -21 -9 -15
0 6 9 2 9 -14 1 -11 -7 -21 -9 -21 -5 0 3 -6 1 -14 -5 -11 -9 -15 -9 -19 1 -4
11 -6 11 -6 0 -1 -10 -6 -10 -21 -2 -14 8 -20 8 -20 0 0 -6 -5 -8 -11 -4 -6 3
-15 0 -20 -7 -7 -12 -9 -12 -9 0 0 9 -4 10 -12 4 -7 -5 -26 -10 -43 -12 -16
-1 -34 -7 -40 -12 -5 -5 -17 -9 -28 -9 -10 0 -16 -4 -13 -9 4 -5 -2 -8 -11 -7
-10 2 -20 -1 -23 -5 -3 -5 -17 -10 -30 -12 -13 -2 -26 -9 -28 -16 -3 -9 -7 -9
-18 0 -10 8 -14 8 -14 0 0 -6 -7 -11 -15 -11 -8 0 -15 -5 -15 -11 0 -5 -4 -7
-10 -4 -5 3 -10 -2 -10 -12 0 -11 -3 -14 -8 -7 -10 16 -44 14 -66 -5 -11 -9
-16 -11 -13 -4 4 6 3 14 -2 17 -5 3 -12 -2 -15 -11 -5 -11 -10 -13 -17 -6 -11
11 -66 -10 -81 -32 -4 -5 -8 -7 -8 -2 0 4 -11 0 -25 -9 -14 -9 -25 -12 -25 -8
0 5 -4 3 -8 -4 -5 -7 -18 -14 -30 -17 -32 -6 -43 -15 -36 -27 4 -7 2 -8 -4 -4
-7 4 -12 3 -12 -2 0 -4 -16 -14 -35 -22 -19 -8 -35 -18 -35 -22 0 -5 -4 -6
-10 -3 -5 3 -10 2 -10 -4 0 -6 -20 -22 -45 -37 -25 -14 -45 -28 -45 -31 0 -2
5 -1 12 3 7 4 8 3 4 -4 -4 -7 -14 -12 -22 -12 -8 0 -17 -7 -20 -15 -4 -8 -11
-12 -17 -8 -6 4 -8 0 -4 -11 4 -10 3 -15 -3 -11 -6 3 -20 -6 -32 -20 -13 -14
-36 -28 -53 -31 -16 -3 -32 -9 -35 -13 -8 -13 -52 -25 -77 -22 -13 1 -23 -2
-23 -7 0 -5 -10 -8 -22 -7 -33 2 -59 -24 -47 -47 5 -10 7 -23 4 -28 -3 -5 -1
-11 5 -15 5 -3 10 0 10 7 0 8 3 9 8 3 9 -13 32 -17 32 -6 0 5 11 4 25 -2 29
-14 31 -20 10 -37 -8 -7 -12 -16 -9 -21 3 -5 -2 -9 -10 -9 -9 0 -16 -7 -16
-16 0 -9 -5 -12 -12 -8 -6 4 -8 3 -5 -3 4 -6 -2 -18 -13 -28 -11 -10 -17 -22
-13 -28 3 -6 1 -7 -5 -3 -7 4 -16 -2 -21 -16 -5 -13 -21 -36 -35 -53 -14 -16
-30 -35 -36 -42 -5 -7 -10 -19 -10 -28 0 -9 -7 -18 -15 -21 -8 -4 -12 -10 -9
-15 3 -5 0 -9 -5 -9 -6 0 -11 -5 -11 -11 0 -6 -9 -23 -20 -39 -11 -15 -17 -30
-13 -34 3 -3 1 -6 -6 -6 -7 0 -10 -4 -7 -9 3 -5 -1 -14 -10 -21 -8 -7 -13 -19
-10 -27 4 -9 1 -11 -6 -7 -8 5 -9 2 -5 -10 4 -10 1 -19 -7 -22 -8 -3 -13 -14
-11 -25 2 -10 0 -19 -5 -19 -9 0 -20 -27 -19 -44 0 -5 -4 -12 -11 -16 -6 -4
-12 -17 -13 -28 -1 -12 -5 -22 -10 -22 -5 0 -3 -8 4 -17 8 -9 9 -14 3 -10 -7
4 -14 0 -18 -8 -3 -8 0 -15 6 -15 7 0 3 -6 -8 -14 -10 -8 -16 -18 -12 -21 4
-4 0 -21 -8 -37 -11 -21 -12 -28 -3 -22 7 4 2 -7 -10 -25 -18 -25 -21 -35 -11
-41 9 -6 9 -12 1 -29 -7 -12 -9 -26 -6 -31 3 -6 1 -10 -4 -10 -6 0 -11 -5 -11
-11 0 -5 6 -7 13 -3 8 5 8 2 -2 -9 -7 -9 -10 -17 -6 -17 4 0 2 -7 -5 -15 -10
-12 -10 -15 1 -15 11 0 11 -2 -1 -10 -13 -9 -13 -10 0 -10 9 0 11 -3 5 -8 -6
-4 -11 -16 -10 -27 0 -11 -4 -23 -9 -26 -5 -4 -5 -12 -1 -19 10 -17 12 -100 2
-100 -5 0 -5 -6 0 -12 11 -19 13 -39 2 -32 -5 3 -9 2 -10 -3 -4 -46 -3 -63 4
-63 5 0 4 -7 -3 -15 -6 -8 -9 -19 -5 -25 3 -5 1 -10 -4 -10 -6 0 -11 -6 -11
-14 0 -7 -7 -19 -15 -26 -13 -11 -13 -15 -3 -22 10 -8 10 -11 1 -15 -7 -2 -13
-11 -13 -19 0 -8 -4 -14 -10 -14 -5 0 -10 -9 -10 -19 0 -11 -5 -23 -10 -26 -6
-4 -8 -11 -5 -16 4 -5 2 -9 -3 -9 -5 0 -8 -10 -7 -22 1 -12 -4 -33 -10 -45 -7
-13 -11 -34 -9 -48 1 -14 -2 -25 -8 -25 -6 0 -8 -11 -6 -25 3 -15 1 -22 -5
-18 -6 4 -8 0 -4 -10 3 -9 2 -19 -4 -23 -6 -3 -6 -10 -1 -17 10 -13 -10 -60
-21 -52 -4 3 -3 0 2 -6 5 -6 7 -18 4 -26 -3 -8 0 -19 8 -24 9 -6 10 -9 2 -9
-6 0 -11 -8 -11 -17 1 -10 -3 -40 -7 -67 -6 -40 -5 -47 6 -41 11 7 12 6 3 -6
-7 -8 -11 -30 -10 -49 2 -19 -1 -40 -6 -47 -6 -7 -4 -14 3 -19 8 -5 9 -3 4 6
-5 9 -4 11 4 6 8 -5 9 -12 3 -19 -6 -7 -9 -37 -8 -67 1 -30 -2 -60 -7 -67 -4
-6 -3 -14 4 -19 8 -5 10 -3 4 7 -5 8 -4 11 1 6 5 -5 9 -24 9 -42 1 -19 4 -37
7 -41 4 -3 4 -12 1 -20 -3 -8 -1 -14 4 -14 5 0 10 -6 11 -12 0 -7 2 -30 3 -50
1 -21 5 -38 8 -38 4 0 8 -12 9 -26 5 -63 31 -53 28 11 -1 27 2 45 8 45 7 0 8
3 1 8 -15 10 -17 32 -5 47 6 7 7 21 3 30 -3 10 -2 16 3 13 5 -4 9 4 10 15 1
12 3 33 6 47 3 14 0 31 -6 39 -8 11 -8 13 0 8 14 -8 27 45 17 70 -4 9 -2 14 4
10 6 -4 9 10 9 34 -1 23 5 46 12 51 7 6 11 17 8 25 -3 8 -2 12 3 9 5 -3 11 1
14 8 3 8 1 17 -6 20 -8 3 -6 9 6 19 10 9 18 18 18 21 -1 3 0 8 0 11 1 3 2 14
3 25 2 33 21 27 24 -8 2 -22 7 -30 15 -25 9 5 9 3 0 -8 -7 -8 -12 -43 -12 -77
0 -34 -2 -65 -5 -70 -3 -5 1 -21 9 -36 10 -18 10 -24 2 -19 -7 4 -7 0 2 -10 7
-9 10 -17 6 -17 -5 0 0 -10 11 -22 10 -12 13 -18 5 -13 -10 6 -11 2 -5 -16 4
-13 9 -40 10 -59 1 -19 3 -37 4 -40 1 -3 2 -8 1 -12 0 -5 3 -8 8 -8 5 0 9 -11
9 -25 0 -14 -5 -22 -11 -18 -6 3 -7 1 -3 -5 13 -22 15 -52 3 -52 -9 0 -9 -2 0
-8 12 -8 12 -36 0 -48 -3 -3 2 -18 11 -32 12 -19 13 -24 3 -17 -11 6 -13 4 -8
-7 3 -9 0 -21 -6 -27 -7 -7 -7 -11 0 -11 5 0 9 -16 8 -35 -1 -19 3 -35 7 -35
5 0 6 -5 3 -10 -4 -6 -2 -17 4 -24 16 -19 9 -59 -11 -71 -9 -5 -17 -13 -17
-18 -2 -26 -15 -56 -22 -51 -5 3 -6 -2 -3 -11 4 -8 1 -21 -5 -29 -6 -7 -8 -16
-4 -19 3 -4 0 -7 -7 -7 -7 0 -10 -3 -7 -7 4 -3 2 -12 -4 -20 -6 -7 -7 -13 -2
-13 5 0 10 -7 10 -15 0 -8 -5 -11 -10 -8 -6 3 -8 -9 -5 -31 2 -20 1 -36 -2
-36 -3 0 -7 -9 -8 -20 -4 -44 -6 -50 -16 -50 -6 0 -4 -5 4 -10 11 -7 11 -10 2
-10 -7 0 -10 -4 -7 -10 3 -5 1 -19 -5 -30 -8 -14 -8 -20 0 -20 8 0 8 -6 0 -20
-8 -15 -8 -20 2 -20 9 0 9 -3 -2 -10 -13 -9 -13 -10 0 -10 13 0 13 -1 0 -10
-8 -5 -10 -10 -3 -10 12 0 12 -24 0 -36 -3 -4 -2 -15 4 -25 6 -13 6 -19 0 -19
-7 0 -7 -8 -2 -23 5 -13 5 -30 1 -38 -6 -8 -4 -16 3 -21 9 -6 8 -8 -3 -8 -13
0 -13 -1 0 -10 13 -9 13 -10 0 -10 -13 0 -13 -1 0 -10 11 -8 12 -12 3 -18 -7
-4 -9 -13 -4 -21 11 -18 -16 -71 -37 -71 -15 0 -15 -2 -2 -10 13 -8 12 -10 -3
-10 -10 0 -20 -8 -24 -17 -3 -10 -15 -30 -25 -45 -12 -17 -15 -29 -8 -33 8 -5
7 -11 -2 -22 -6 -8 -13 -20 -15 -27 -13 -64 -13 -67 -2 -60 8 5 9 3 3 -7 -12
-20 -12 -79 0 -79 7 0 6 -3 -1 -8 -14 -9 -13 -52 2 -52 6 0 7 -3 0 -8 -14 -10
-15 -42 -2 -42 6 0 7 -3 4 -7 -4 -3 -1 -13 6 -21 9 -13 9 -14 0 -8 -7 4 -13 3
-13 -3 0 -5 4 -12 10 -16 5 -3 6 -13 3 -22 -4 -10 -2 -14 4 -10 7 5 9 -1 5
-15 -3 -13 -1 -19 5 -15 7 5 9 -1 5 -15 -3 -12 -1 -19 5 -15 5 3 10 0 10 -8 0
-8 -4 -15 -9 -15 -5 0 -1 -11 8 -25 9 -14 21 -22 26 -19 6 4 5 -3 -1 -15 -7
-13 -8 -21 -2 -21 5 0 8 -9 6 -20 -2 -11 1 -20 7 -20 7 0 6 -6 -2 -15 -10 -12
-10 -15 0 -15 9 0 9 -4 3 -12 -6 -7 -9 -23 -8 -36 1 -12 -2 -22 -7 -22 -5 0
-6 -4 -3 -10 3 -5 1 -10 -5 -10 -6 0 -9 -4 -6 -9 3 -4 1 -22 -3 -39 -6 -20 -5
-34 2 -41 8 -8 8 -11 -1 -11 -13 0 -6 -57 10 -77 5 -7 5 -14 -2 -18 -6 -3 -7
-12 -3 -18 4 -7 9 -23 11 -36 2 -14 8 -33 14 -44 7 -14 7 -17 -1 -13 -6 4 -11
3 -11 -3 0 -5 5 -13 10 -16 6 -4 7 -11 4 -17 -4 -6 0 -14 7 -19 9 -6 10 -9 2
-9 -7 0 -10 -9 -8 -21 3 -12 2 -19 -1 -16 -7 7 -51 -36 -47 -45 2 -5 -3 -8
-11 -8 -9 0 -16 -7 -16 -15 0 -7 -8 -19 -17 -24 -10 -6 -14 -11 -10 -11 5 0
-1 -13 -12 -29 -12 -16 -21 -37 -21 -46 0 -9 -4 -13 -10 -10 -5 3 -10 -3 -10
-14 0 -11 -5 -23 -11 -26 -6 -4 -8 -13 -5 -20 2 -7 -2 -22 -10 -33 -13 -19
-12 -22 3 -31 17 -10 17 -10 -2 -11 -15 0 -17 -2 -6 -9 9 -6 10 -11 2 -15 -8
-5 -8 -13 -1 -26 5 -10 10 -30 10 -45 0 -17 4 -24 12 -19 8 5 9 2 5 -11 -4 -9
-2 -24 4 -31 6 -8 8 -14 3 -14 -5 0 -3 -4 4 -9 7 -4 14 -17 15 -29 0 -11 5
-18 9 -16 4 3 8 -2 8 -11 0 -10 5 -13 12 -9 6 4 8 3 5 -4 -10 -15 3 -43 17
-35 6 4 5 -1 -3 -10 -13 -16 -8 -22 14 -17 5 1 7 -2 3 -6 -4 -4 -3 -13 3 -20
7 -8 7 -14 -1 -19 -8 -5 -7 -11 2 -23 7 -9 8 -13 2 -9 -7 4 -11 -2 -11 -18 0
-16 4 -22 11 -18 6 4 5 0 -2 -9 -9 -12 -10 -18 -2 -23 8 -5 8 -10 0 -20 -8
-10 -8 -15 1 -20 8 -6 7 -10 -2 -16 -9 -5 -9 -9 -3 -9 7 0 14 -9 17 -20 3 -11
1 -18 -3 -15 -5 3 -8 -4 -7 -15 1 -15 9 -20 32 -21 16 0 868 -1 1893 -2 1235
-1 1862 1 1863 8 1 6 1 36 1 68 0 41 3 55 11 50 8 -4 7 -1 -1 9 -9 12 -10 18
-2 23 6 4 9 14 6 22 -3 8 -2 12 2 9 10 -6 7 87 -2 103 -4 6 -3 11 1 11 5 0 9
41 8 92 -1 70 3 96 14 109 35 39 42 50 36 59 -3 6 2 10 12 10 15 0 16 2 3 10
-13 8 -11 11 7 16 12 3 24 13 27 21 4 9 2 12 -7 7 -6 -4 -1 4 12 19 13 15 20
31 16 38 -6 8 -4 10 5 4 10 -6 12 -3 8 13 -4 13 -1 22 5 23 7 0 3 4 -8 9 -19
8 -19 9 -1 9 16 1 17 4 8 13 -7 7 -12 20 -12 31 0 10 -4 16 -9 13 -5 -4 -7 3
-4 13 6 24 -15 64 -29 55 -7 -4 -8 -3 -4 4 4 7 2 12 -4 12 -6 0 -9 4 -5 9 3 5
-1 16 -9 24 -8 8 -13 17 -10 20 3 3 -3 10 -14 16 -10 6 -25 24 -32 40 -7 19
-17 28 -24 24 -6 -4 -5 0 2 9 9 12 10 18 2 23 -8 5 -7 11 2 22 14 17 13 19 -5
42 -10 12 -9 13 2 6 11 -6 13 -4 8 8 -3 9 -1 17 5 19 6 2 12 21 13 41 2 21 9
45 16 54 8 9 9 14 3 10 -7 -4 -11 7 -10 32 1 33 3 37 15 28 12 -10 12 -8 2 12
-11 19 -11 22 0 16 9 -6 11 -3 6 8 -4 10 -2 17 4 17 6 0 9 6 6 14 -3 7 0 19 6
26 9 10 9 11 0 6 -8 -5 -13 -1 -13 9 0 10 5 14 13 9 9 -5 9 -4 0 6 -8 9 -9 19
-2 31 8 15 6 17 -8 12 -15 -5 -16 -4 -7 8 7 8 10 29 8 47 -3 22 0 31 7 26 8
-4 8 -1 2 12 -5 11 -9 35 -7 54 1 19 -3 40 -8 47 -6 7 -5 14 2 18 5 3 10 13
10 21 0 9 -5 12 -12 8 -7 -5 -8 -3 -2 7 12 19 16 49 6 49 -4 0 -8 8 -9 18 -4
49 -7 68 -15 78 -5 7 -8 16 -6 20 4 14 -24 88 -36 96 -7 5 -6 8 3 8 11 0 11 3
0 17 -12 15 -12 16 1 8 10 -6 9 -2 -3 12 -13 14 -15 23 -7 28 8 5 7 11 -2 23
-8 9 -8 13 -1 9 8 -5 10 4 8 29 -2 21 3 46 11 59 8 13 13 35 10 51 -3 15 -1
33 5 40 6 7 8 18 4 24 -3 5 -2 10 4 10 5 0 8 11 5 25 -3 16 0 25 8 25 9 0 10
3 2 8 -6 4 -11 16 -11 27 0 11 5 23 11 27 7 5 7 8 1 8 -15 0 -17 50 -2 50 7 0
8 3 2 8 -16 11 -18 52 -3 52 8 0 9 3 3 8 -16 11 -17 33 -3 50 8 9 8 13 2 9 -8
-5 -11 6 -10 36 1 23 -1 47 -4 52 -4 6 -10 19 -14 29 -6 17 -5 17 10 5 15 -13
15 -10 -1 21 -10 19 -23 38 -29 42 -7 5 -7 8 0 8 5 0 10 11 10 25 0 14 -4 25
-9 25 -4 0 -5 6 0 13 10 17 12 57 1 51 -4 -3 -8 11 -8 30 0 47 0 49 -9 61 -4
6 -7 17 -6 25 0 8 -4 18 -10 22 -6 5 -5 8 4 8 11 0 11 3 1 15 -7 8 -9 15 -4
15 5 0 2 5 -6 10 -12 7 -12 10 -1 10 7 0 11 6 7 15 -3 8 -1 15 4 15 5 0 7 7 4
15 -3 8 -2 20 2 27 5 7 9 27 11 43 5 68 11 114 17 124 4 5 2 12 -4 16 -6 4 -7
12 -3 18 13 21 13 47 0 47 -7 0 -8 3 -2 8 13 9 15 52 2 52 -6 0 -6 5 0 13 11
14 11 47 0 64 -4 7 -2 21 5 32 10 17 9 23 -6 39 -12 14 -14 22 -6 27 8 5 8 10
0 20 -8 10 -6 17 11 29 12 8 26 13 30 10 11 -6 23 42 15 61 -3 9 -2 13 4 10 9
-6 14 8 11 28 0 4 3 7 8 7 5 0 8 16 6 35 -1 19 3 35 8 35 6 0 2 7 -9 16 -10 8
-14 13 -7 10 18 -10 26 13 11 31 -11 14 -11 16 1 8 11 -6 13 -2 7 19 -5 20 -3
26 5 20 8 -5 9 -2 2 10 -10 19 -5 78 6 71 4 -2 8 2 8 10 0 8 -4 12 -9 9 -4 -3
-8 -1 -8 5 0 5 5 13 10 16 6 3 10 15 10 26 0 14 -4 18 -12 13 -10 -6 -10 -4 0
8 10 13 10 17 -2 21 -9 4 -12 14 -9 26 3 12 1 21 -5 21 -6 0 -9 8 -7 18 1 9
-2 23 -8 30 -5 6 -7 12 -3 12 4 0 0 12 -7 28 -8 15 -12 33 -10 40 3 6 -1 12
-7 12 -7 0 -10 6 -7 14 3 7 -1 25 -8 40 -8 15 -10 28 -4 31 5 4 2 16 -6 29 -8
12 -12 26 -8 29 3 4 1 7 -6 7 -7 0 -9 5 -6 10 3 6 2 10 -3 10 -6 0 -8 9 -5 20
3 12 0 20 -6 20 -7 0 -9 5 -6 10 3 6 0 10 -7 10 -9 0 -9 3 2 10 8 5 10 10 4
10 -6 0 -11 7 -12 15 -1 8 -3 22 -4 30 -1 8 -5 15 -9 15 -5 0 -6 7 -3 15 4 8
1 15 -6 15 -10 0 -10 3 0 15 9 10 9 15 1 15 -6 0 -11 12 -11 26 0 14 -4 23 -8
20 -5 -3 -9 14 -10 36 -1 23 -5 44 -10 47 -4 3 -9 15 -10 26 -2 11 -9 23 -15
27 -7 4 -9 8 -5 8 4 0 1 15 -6 33 -7 17 -11 38 -9 45 3 6 0 12 -6 12 -6 0 -8
7 -5 15 4 8 1 15 -6 15 -7 0 -10 7 -6 15 3 8 1 15 -4 15 -6 0 -9 3 -9 8 1 4 0
9 -1 12 -3 9 -11 45 -12 57 -1 7 -8 15 -15 17 -8 3 -11 10 -8 16 3 5 1 10 -4
10 -6 0 -11 7 -11 15 0 9 -7 27 -16 40 -9 13 -13 29 -9 35 3 5 1 10 -5 10 -6
0 -8 5 -5 10 3 6 1 10 -5 10 -6 0 -9 4 -5 9 3 5 1 12 -5 16 -5 3 -10 15 -10
26 0 11 -4 17 -10 14 -6 -4 -10 5 -10 19 0 14 -4 26 -10 26 -5 0 -10 9 -10 21
0 13 -4 18 -12 13 -7 -4 -8 -3 -4 5 4 6 2 18 -4 26 -9 11 -9 15 -1 15 8 0 9 5
2 19 -6 10 -7 21 -4 25 3 3 1 6 -5 6 -7 0 -12 9 -12 20 0 11 -4 20 -10 20 -5
0 -10 7 -10 15 0 9 -7 18 -15 21 -8 4 -13 10 -10 14 3 4 -8 27 -24 51 -16 24
-28 46 -25 50 2 4 -3 9 -11 13 -8 3 -15 12 -15 21 0 8 -4 15 -10 15 -5 0 -10
7 -10 16 0 8 -4 12 -10 9 -9 -6 -14 8 -11 28 1 5 -2 7 -6 4 -5 -2 -23 11 -41
30 -19 18 -31 33 -27 33 4 0 2 7 -5 15 -7 8 -16 12 -21 9 -8 -5 -11 2 -8 22 1
8 -54 54 -64 54 -5 0 -6 4 -3 9 3 5 -5 16 -18 25 -14 8 -35 26 -48 38 -13 13
-35 29 -50 37 -15 8 -25 18 -22 23 3 4 -4 8 -16 8 -12 0 -19 3 -17 8 3 4 -1
13 -9 20 -8 7 -14 9 -14 5 0 -4 -4 -3 -8 2 -9 13 -61 46 -65 43 -2 -2 -11 5
-21 15 -10 9 -22 15 -27 12 -5 -4 -9 -2 -9 2 0 5 -9 14 -21 21 -17 11 -20 11
-13 0 4 -7 -2 -5 -14 6 -12 10 -28 16 -37 13 -9 -4 -15 -1 -15 8 0 9 -6 12
-16 8 -10 -4 -20 1 -26 12 -8 14 -12 15 -19 4 -7 -11 -9 -11 -9 -1 0 7 -4 11
-9 7 -5 -3 -12 -1 -16 5 -3 5 -15 10 -26 10 -10 0 -19 5 -19 10 0 7 -7 7 -21
-1 -17 -9 -20 -8 -14 2 6 9 3 11 -8 6 -10 -3 -17 -2 -17 4 0 6 -9 8 -20 4 -11
-4 -20 -2 -20 4 0 6 -13 11 -30 11 -16 0 -30 5 -30 11 0 8 -4 8 -13 0 -8 -6
-17 -7 -23 -2 -8 8 -99 22 -146 22 -10 0 -18 6 -18 12 0 7 -4 6 -10 -3 -9 -13
-10 -13 -10 0 0 13 -1 13 -10 0 -7 -11 -10 -11 -10 -2 0 9 -5 10 -18 3 -13 -7
-23 -6 -30 1 -7 7 -12 8 -12 3 0 -13 -73 -13 -82 0 -5 6 -8 5 -8 -3 0 -10 -5
-10 -20 -2 -15 8 -20 8 -20 -2 0 -9 -3 -9 -10 2 -7 11 -10 11 -10 2 0 -10 -5
-10 -20 -2 -13 7 -20 7 -20 1z m-219 -3641 c9 0 22 -7 29 -15 7 -8 17 -12 23
-8 6 3 7 1 3 -5 -4 -7 -1 -12 6 -12 9 0 9 -3 -2 -10 -12 -8 -12 -10 -1 -10 8
0 11 -7 8 -20 -3 -11 -1 -20 5 -20 5 0 7 -4 4 -9 -4 -5 -1 -11 4 -13 6 -2 12
-11 14 -21 1 -9 12 -26 24 -38 12 -11 20 -25 16 -30 -3 -5 -2 -8 3 -7 12 4
133 -121 130 -135 -1 -7 7 -12 18 -12 11 0 20 7 20 15 0 8 10 25 22 36 12 12
19 26 15 30 -4 5 0 3 10 -4 14 -11 17 -10 23 8 3 11 10 18 15 15 5 -3 11 4 15
14 3 11 15 23 26 26 10 4 17 11 13 16 -3 5 -2 9 3 8 24 -4 43 3 43 16 0 8 7
15 16 15 8 0 12 5 9 10 -3 6 -1 10 4 10 6 0 11 7 11 15 0 8 5 15 10 15 6 0 10
-5 10 -11 0 -5 5 -7 12 -3 7 5 9 2 5 -8 -3 -9 0 -21 6 -28 9 -10 9 -11 0 -6
-18 10 -16 1 3 -18 11 -11 12 -16 3 -16 -7 0 -4 -6 7 -15 13 -10 14 -14 5 -15
-10 0 -11 -3 -2 -13 6 -8 8 -17 4 -20 -3 -4 -1 -7 6 -7 7 0 9 -4 6 -10 -3 -5
-2 -10 4 -10 6 0 7 -7 4 -17 -4 -10 -2 -14 4 -10 12 8 26 -20 17 -34 -3 -5 0
-9 5 -9 6 0 11 -10 11 -22 0 -12 3 -18 7 -15 7 7 33 -11 33 -23 0 -4 -11 -12
-25 -18 -14 -6 -25 -18 -25 -27 0 -8 -6 -14 -12 -12 -7 1 -12 -4 -11 -10 2 -7
-1 -13 -6 -13 -5 0 -16 -6 -23 -12 -8 -7 -25 -19 -38 -27 -20 -12 -25 -11 -35
3 -7 8 -16 12 -20 8 -5 -4 -5 -2 -2 5 4 6 0 18 -8 26 -8 9 -15 20 -15 26 0 6
-21 32 -47 58 -26 27 -44 42 -39 36 4 -7 3 -13 -3 -13 -5 0 -11 5 -13 12 -3 8
-11 5 -23 -10 -19 -21 -63 -32 -50 -13 3 5 -7 9 -22 8 -16 -1 -29 2 -30 6 -3
13 -37 36 -45 31 -4 -3 -5 2 -2 10 9 25 -35 20 -57 -6 -11 -11 -19 -25 -19
-30 0 -5 -5 -6 -12 -2 -8 5 -9 2 -5 -10 4 -10 7 -22 7 -27 0 -6 6 -7 13 -4 6
4 4 0 -5 -8 -10 -8 -15 -17 -11 -20 3 -4 1 -7 -5 -7 -7 0 -12 -7 -12 -16 0 -8
-4 -13 -8 -10 -4 2 -14 -4 -21 -16 -10 -16 -10 -19 1 -12 7 4 0 -10 -17 -32
-16 -21 -33 -41 -37 -42 -5 -2 -6 -7 -3 -12 3 -4 -3 -14 -12 -21 -12 -10 -14
-10 -9 -1 4 6 2 12 -3 12 -6 0 -11 -6 -11 -12 0 -8 -5 -6 -10 4 -6 9 -18 14
-29 11 -11 -3 -26 4 -37 15 -11 11 -26 22 -34 24 -15 3 -39 27 -40 41 0 4 7 7
15 7 8 0 15 7 15 15 0 25 1 29 12 43 8 8 7 12 -3 13 -10 0 -11 2 -1 6 6 2 10
9 6 14 -3 5 0 9 5 9 6 0 11 5 11 11 0 5 -5 7 -11 3 -6 -3 -3 5 6 19 9 15 14
31 10 37 -3 5 -1 10 5 10 6 0 8 5 5 10 -3 6 1 13 9 16 9 3 16 12 16 20 0 8 5
14 12 14 6 0 8 3 5 7 -4 3 -2 12 4 20 6 7 8 13 4 13 -4 0 -2 7 5 15 7 8 9 15
5 15 -4 0 -2 7 5 15 6 8 8 20 4 26 -4 7 -3 9 4 5 6 -3 13 -2 17 4 3 5 0 10 -7
10 -10 0 -10 2 -1 8 14 9 14 51 -1 71 -9 12 -8 13 4 7 8 -4 6 0 -4 8 -11 9
-15 16 -8 16 8 0 9 7 3 23 -5 12 -15 21 -22 19 -10 -2 -9 0 1 13 9 11 16 13
24 5 5 -5 18 -10 27 -10z"/>
</g>
</svg>
